<mxfile host="app.diagrams.net" agent="Mozilla/5.0 (Windows NT 10.0; Win64; x64) AppleWebKit/537.36 (KHTML, like Gecko) Chrome/131.0.0.0 Safari/537.36 OPR/116.0.0.0" version="26.0.14">
  <diagram name="Página-1" id="Wyve5xeZmczlEmRUayO4">
    <mxGraphModel grid="1" page="1" gridSize="10" guides="1" tooltips="1" connect="1" arrows="1" fold="1" pageScale="1" pageWidth="827" pageHeight="1169" math="0" shadow="0">
      <root>
        <mxCell id="0" />
        <mxCell id="1" parent="0" />
        <mxCell id="OnXUVQCP9aoCTuk_j71d-6" style="edgeStyle=orthogonalEdgeStyle;rounded=0;orthogonalLoop=1;jettySize=auto;html=1;entryX=0.5;entryY=0;entryDx=0;entryDy=0;" edge="1" parent="1" source="OnXUVQCP9aoCTuk_j71d-3" target="OnXUVQCP9aoCTuk_j71d-5">
          <mxGeometry relative="1" as="geometry" />
        </mxCell>
        <mxCell id="OnXUVQCP9aoCTuk_j71d-3" value="INICIO" style="rounded=1;whiteSpace=wrap;html=1;arcSize=50;" vertex="1" parent="1">
          <mxGeometry x="354" width="120" height="60" as="geometry" />
        </mxCell>
        <mxCell id="OnXUVQCP9aoCTuk_j71d-4" value="FINAL" style="rounded=1;whiteSpace=wrap;html=1;arcSize=50;" vertex="1" parent="1">
          <mxGeometry x="353" y="584" width="120" height="60" as="geometry" />
        </mxCell>
        <mxCell id="OnXUVQCP9aoCTuk_j71d-16" style="edgeStyle=orthogonalEdgeStyle;rounded=0;orthogonalLoop=1;jettySize=auto;html=1;entryX=0.5;entryY=0;entryDx=0;entryDy=0;" edge="1" parent="1" source="OnXUVQCP9aoCTuk_j71d-5" target="OnXUVQCP9aoCTuk_j71d-7">
          <mxGeometry relative="1" as="geometry" />
        </mxCell>
        <mxCell id="OnXUVQCP9aoCTuk_j71d-5" value="Pedir um número inteiro&lt;div&gt;(numero)&lt;/div&gt;" style="shape=parallelogram;perimeter=parallelogramPerimeter;whiteSpace=wrap;html=1;fixedSize=1;" vertex="1" parent="1">
          <mxGeometry x="354" y="140" width="120" height="60" as="geometry" />
        </mxCell>
        <mxCell id="OnXUVQCP9aoCTuk_j71d-15" style="edgeStyle=orthogonalEdgeStyle;rounded=0;orthogonalLoop=1;jettySize=auto;html=1;entryX=0.5;entryY=0;entryDx=0;entryDy=0;" edge="1" parent="1" source="OnXUVQCP9aoCTuk_j71d-7" target="OnXUVQCP9aoCTuk_j71d-9">
          <mxGeometry relative="1" as="geometry" />
        </mxCell>
        <mxCell id="OnXUVQCP9aoCTuk_j71d-7" value="Dividir o número por 2" style="rounded=0;whiteSpace=wrap;html=1;" vertex="1" parent="1">
          <mxGeometry x="354" y="230" width="120" height="60" as="geometry" />
        </mxCell>
        <mxCell id="OnXUVQCP9aoCTuk_j71d-13" style="edgeStyle=orthogonalEdgeStyle;rounded=0;orthogonalLoop=1;jettySize=auto;html=1;" edge="1" parent="1" source="OnXUVQCP9aoCTuk_j71d-9" target="OnXUVQCP9aoCTuk_j71d-11">
          <mxGeometry relative="1" as="geometry" />
        </mxCell>
        <mxCell id="OnXUVQCP9aoCTuk_j71d-14" style="edgeStyle=orthogonalEdgeStyle;rounded=0;orthogonalLoop=1;jettySize=auto;html=1;" edge="1" parent="1" source="OnXUVQCP9aoCTuk_j71d-9" target="OnXUVQCP9aoCTuk_j71d-12">
          <mxGeometry relative="1" as="geometry" />
        </mxCell>
        <mxCell id="OnXUVQCP9aoCTuk_j71d-9" value="O resto da divisão é igual a 0?&lt;div&gt;(numero % 2 = 0)&lt;/div&gt;" style="rhombus;whiteSpace=wrap;html=1;" vertex="1" parent="1">
          <mxGeometry x="314" y="330" width="200" height="120" as="geometry" />
        </mxCell>
        <mxCell id="OnXUVQCP9aoCTuk_j71d-17" style="edgeStyle=orthogonalEdgeStyle;rounded=0;orthogonalLoop=1;jettySize=auto;html=1;entryX=0;entryY=0.5;entryDx=0;entryDy=0;" edge="1" parent="1" source="OnXUVQCP9aoCTuk_j71d-11" target="OnXUVQCP9aoCTuk_j71d-4">
          <mxGeometry relative="1" as="geometry">
            <Array as="points">
              <mxPoint x="190" y="614" />
            </Array>
          </mxGeometry>
        </mxCell>
        <mxCell id="OnXUVQCP9aoCTuk_j71d-11" value="O número é par!" style="shape=display;whiteSpace=wrap;html=1;" vertex="1" parent="1">
          <mxGeometry x="120" y="360" width="120" height="60" as="geometry" />
        </mxCell>
        <mxCell id="OnXUVQCP9aoCTuk_j71d-18" style="edgeStyle=orthogonalEdgeStyle;rounded=0;orthogonalLoop=1;jettySize=auto;html=1;entryX=1;entryY=0.5;entryDx=0;entryDy=0;" edge="1" parent="1" source="OnXUVQCP9aoCTuk_j71d-12" target="OnXUVQCP9aoCTuk_j71d-4">
          <mxGeometry relative="1" as="geometry">
            <Array as="points">
              <mxPoint x="650" y="614" />
            </Array>
          </mxGeometry>
        </mxCell>
        <mxCell id="OnXUVQCP9aoCTuk_j71d-12" value="O número é impar!" style="shape=display;whiteSpace=wrap;html=1;" vertex="1" parent="1">
          <mxGeometry x="580" y="360" width="120" height="60" as="geometry" />
        </mxCell>
        <mxCell id="bzHTobq0a_i7qEahvLCL-1" value="Sim" style="text;html=1;align=center;verticalAlign=middle;resizable=0;points=[];autosize=1;strokeColor=none;fillColor=none;" vertex="1" parent="1">
          <mxGeometry x="290" y="360" width="40" height="30" as="geometry" />
        </mxCell>
        <mxCell id="bzHTobq0a_i7qEahvLCL-2" value="Não" style="text;html=1;align=center;verticalAlign=middle;resizable=0;points=[];autosize=1;strokeColor=none;fillColor=none;" vertex="1" parent="1">
          <mxGeometry x="490" y="358" width="50" height="30" as="geometry" />
        </mxCell>
      </root>
    </mxGraphModel>
  </diagram>
</mxfile>
